<?xml version="1.0" standalone="no"?>
<!DOCTYPE svg PUBLIC "-//W3C//DTD SVG 20010904//EN"
 "http://www.w3.org/TR/2001/REC-SVG-20010904/DTD/svg10.dtd">
<svg version="1.0" xmlns="http://www.w3.org/2000/svg"
 width="245.000000pt" height="245.000000pt" viewBox="0 0 245.000000 245.000000"
 preserveAspectRatio="xMidYMid meet">
<metadata>
Created by potrace 1.11, written by Peter Selinger 2001-2013
</metadata>
<g transform="translate(0.000000,245.000000) scale(0.100000,-0.100000)"
fill="#000000" stroke="none">
<path d="M995 2330 c-9 -14 3 -30 22 -30 9 0 13 3 10 7 -4 3 -2 12 4 20 9 10
7 13 -9 13 -12 0 -24 -4 -27 -10z"/>
<path d="M1075 2323 c-16 -9 -33 -20 -36 -26 -8 -11 -109 -15 -116 -4 -2 4
-12 7 -21 7 -15 0 -15 -2 -2 -11 11 -8 8 -9 -13 -4 -20 4 -27 2 -22 -5 4 -7
-2 -14 -15 -17 l-21 -6 22 -23 c12 -13 20 -27 17 -30 -8 -8 -48 14 -48 26 0 6
-8 10 -17 10 -14 0 -15 -2 -4 -9 7 -5 12 -14 9 -21 -3 -10 -8 -9 -19 2 -13 13
-18 14 -34 2 -10 -8 -29 -14 -42 -14 -13 0 -24 -6 -24 -12 -1 -7 -3 -26 -5
-41 -3 -26 -1 -27 14 -15 9 7 20 18 24 23 4 6 8 0 8 -12 0 -22 -12 -27 -57
-26 -7 1 -13 -3 -13 -8 0 -5 -7 -9 -15 -9 -10 0 -17 -14 -21 -40 -4 -22 -11
-43 -15 -46 -5 -3 -9 -14 -9 -25 0 -20 24 -26 35 -9 10 16 44 -7 51 -35 8 -33
22 -32 26 3 2 22 7 26 27 24 13 -2 44 7 70 21 25 14 73 30 106 37 88 17 155
38 184 56 34 23 84 35 161 40 69 4 109 16 152 47 14 11 31 17 36 13 6 -3 13
-2 17 4 3 6 -7 18 -24 28 -17 9 -31 23 -31 30 0 14 -32 28 -76 35 -16 2 -37 7
-47 12 -9 4 -26 5 -37 2 -10 -3 -36 3 -57 14 -57 27 -85 30 -118 12z"/>
<path d="M560 1901 c-65 -26 -96 -96 -103 -233 -9 -173 29 -362 84 -407 38
-33 46 -81 17 -107 -42 -38 -48 -66 -28 -112 13 -29 25 -42 39 -42 11 0 26 -3
35 -6 29 -11 29 24 0 61 -23 31 -25 39 -16 60 7 14 17 24 24 23 14 -3 14 0 -2
102 -16 108 -12 211 11 286 29 93 27 117 -14 165 -44 50 -59 147 -22 133 13
-5 10 17 -8 77 -1 4 -9 4 -17 0z"/>
<path d="M1724 1776 c-7 -18 16 -106 28 -106 4 0 8 -24 9 -52 0 -29 4 -62 8
-73 8 -19 8 -19 18 0 15 27 25 109 17 139 -3 13 -14 26 -25 29 -12 3 -22 17
-25 36 -8 37 -22 49 -30 27z m63 -108 c-3 -7 -5 -2 -5 12 0 14 2 19 5 13 2 -7
2 -19 0 -25z"/>
<path d="M1329 1721 c-48 -10 -97 -46 -101 -74 -2 -12 0 -55 3 -95 4 -55 11
-78 27 -95 41 -43 169 -61 237 -33 31 13 35 19 35 52 0 35 1 36 28 31 40 -8
56 5 48 39 -4 16 -7 40 -7 54 1 31 -30 84 -62 104 -27 18 -154 29 -208 17z"/>
<path d="M910 1627 c-25 -6 -67 -22 -95 -36 -43 -22 -55 -35 -82 -91 -37 -74
-40 -98 -17 -147 17 -34 17 -34 68 -28 44 6 54 4 70 -14 27 -30 79 -27 151 9
33 16 66 30 73 30 7 0 20 15 28 34 14 27 15 51 9 130 -7 94 -8 96 -33 102 -15
3 -38 8 -52 11 -50 10 -76 11 -120 0z"/>
<path d="M1837 1384 c-8 -8 3 -34 14 -34 5 0 9 9 9 20 0 19 -11 26 -23 14z"/>
<path d="M446 1254 c-7 -19 11 -131 25 -154 6 -10 8 18 6 74 -2 86 -16 120
-31 80z"/>
<path d="M1184 1185 c-69 -16 -124 -51 -124 -78 0 -36 15 -50 44 -43 36 9 35
-16 -1 -34 -25 -12 -92 -73 -93 -85 0 -3 -3 -12 -6 -20 -4 -8 -4 -24 -1 -35 3
-11 1 -22 -4 -26 -5 -3 -2 -16 7 -30 12 -17 13 -24 4 -24 -10 0 -10 -3 0 -15
11 -13 10 -14 -4 -9 -9 3 -16 10 -16 14 0 12 -68 33 -85 26 -8 -3 -15 -1 -15
5 0 6 -6 9 -14 6 -8 -3 -17 -1 -20 6 -3 9 -5 8 -5 -1 -1 -7 -5 -10 -11 -7 -16
10 -12 -7 7 -27 14 -16 14 -18 1 -18 -19 0 -30 -34 -15 -49 8 -8 6 -11 -6 -11
-15 0 -17 -7 -11 -47 3 -27 10 -56 15 -65 27 -51 -12 -149 -51 -128 -26 14
-30 13 -23 -7 5 -13 2 -15 -11 -10 -23 9 -16 -12 35 -115 30 -58 39 -88 39
-126 0 -28 -5 -54 -10 -57 -6 -4 -8 -10 -6 -14 3 -4 -6 -15 -20 -25 -13 -11
-24 -27 -24 -37 0 -11 -4 -19 -9 -19 -5 0 -7 10 -4 22 6 23 6 22 -16 -2 -20
-22 -21 -22 -12 -3 17 34 13 38 -14 13 -14 -13 -25 -19 -25 -13 0 6 7 16 15
23 8 7 15 17 15 22 0 6 -16 -4 -36 -22 -20 -17 -39 -28 -42 -25 -4 3 11 22 33
42 34 29 35 32 9 16 -69 -41 -79 -52 -68 -71 6 -9 32 -32 58 -49 l48 -33 255
0 255 0 -17 28 c-10 15 -32 44 -48 66 l-31 39 108 -5 c59 -3 102 -2 95 3 -7 4
-16 6 -20 3 -4 -2 -11 1 -15 7 -4 8 -3 9 5 5 6 -4 14 0 17 8 3 9 10 16 16 16
5 0 6 -4 3 -10 -3 -6 1 -7 9 -4 9 3 16 10 16 15 0 5 3 8 8 8 19 -3 45 2 39 7
-3 4 -2 16 4 26 8 15 14 17 22 9 13 -13 31 -15 23 -3 -7 12 6 26 37 40 33 14
72 91 53 105 -6 5 3 6 22 3 19 -3 32 -1 32 5 0 6 -4 8 -9 5 -5 -3 -11 1 -15 9
-5 15 -1 18 29 18 30 0 36 -3 30 -13 -3 -5 0 -7 9 -4 16 6 28 29 32 62 2 12
10 29 18 38 15 15 16 58 4 174 -1 14 6 40 15 58 10 17 16 33 15 33 -2 1 -13 3
-26 4 -15 2 -21 -2 -18 -10 2 -7 2 -16 -2 -20 -4 -4 -7 -10 -8 -13 -4 -35 -55
-102 -77 -102 -21 0 -75 29 -104 56 -15 14 -33 22 -43 19 -9 -3 -36 1 -61 8
-47 13 -89 12 -89 -4 0 -6 -4 -7 -10 -4 -5 3 -10 1 -10 -4 0 -6 -7 -11 -15
-11 -8 0 -15 -5 -15 -11 0 -6 7 -8 16 -5 9 3 12 2 8 -5 -3 -6 -15 -9 -25 -6
-11 3 -19 1 -19 -5 0 -6 -6 -8 -14 -5 -8 3 -22 0 -31 -7 -24 -17 -72 -8 -78
15 -3 10 -1 19 5 19 5 0 7 4 4 8 -5 9 31 46 47 49 50 10 81 19 127 40 30 14
73 31 95 38 39 12 40 13 40 60 0 40 5 51 30 71 36 29 51 30 89 5 17 -11 33
-18 38 -15 19 12 -25 122 -62 151 -22 18 -28 16 -32 -9 -3 -22 -8 -23 -95 -24
-51 -1 -93 3 -93 7 0 5 14 19 31 31 18 14 28 29 26 39 -3 10 4 30 14 45 10 15
16 31 13 35 -7 12 -141 8 -200 -6z m-19 -195 c-65 -31 -75 -34 -75 -22 0 13
83 52 110 51 19 0 10 -7 -35 -29z m225 -50 c0 -14 -35 -30 -64 -30 -36 0 -32
15 7 28 42 13 57 14 57 2z m-220 -114 c0 -3 -4 -8 -10 -11 -5 -3 -10 -1 -10 4
0 6 5 11 10 11 6 0 10 -2 10 -4z m-33 -23 c-4 -3 -1 -13 6 -22 11 -14 10 -14
-5 -2 -16 12 -16 31 -1 31 4 0 3 -3 0 -7z m-330 -705 c-3 -8 -6 -5 -6 6 -1 11
2 17 5 13 3 -3 4 -12 1 -19z"/>
<path d="M1675 820 c-8 -13 9 -20 24 -11 10 6 9 10 -3 14 -8 3 -18 2 -21 -3z"/>
<path d="M2017 519 c-18 -11 -24 -64 -7 -74 6 -3 10 -4 10 -2 0 3 7 21 15 40
16 39 10 51 -18 36z"/>
<path d="M1880 487 c-36 -12 -69 -26 -73 -32 -4 -5 -5 -29 -2 -53 4 -26 2 -49
-5 -57 -19 -23 -25 -122 -9 -142 9 -11 10 -14 2 -9 -9 5 -11 2 -7 -8 10 -26
24 -7 24 32 0 63 12 71 64 43 25 -12 48 -21 53 -18 4 3 23 35 41 70 33 63 33
68 23 118 -11 50 -26 80 -40 78 -3 0 -35 -10 -71 -22z"/>
<path d="M1928 176 c-14 -36 -23 -66 -18 -66 10 0 53 106 48 121 -2 6 -16 -19
-30 -55z"/>
<path d="M2046 203 c-6 -14 -5 -15 5 -6 7 7 10 15 7 18 -3 3 -9 -2 -12 -12z"/>
<path d="M630 165 c-14 -8 -20 -14 -14 -15 5 0 19 7 30 15 24 18 16 19 -16 0z"/>
<path d="M2002 148 c-14 -17 -19 -47 -8 -46 5 0 13 -6 18 -14 6 -9 7 -6 3 10
-5 17 -2 22 12 22 17 1 17 1 0 11 -9 6 -15 14 -12 20 9 13 -1 11 -13 -3z"/>
</g>
</svg>
