<svg xmlns="http://www.w3.org/2000/svg" viewBox="0 0 245 245" fill="#6b17e8" height="256" width="256">
  <title>Muhammad Rehan Saeed</title>
  <circle cx="122.5" cy="122.5" r="112.5" fill="#f9fafb" stroke="#6b17e8" stroke-width="10" />
  <path
    d="M99.575 30.2c-.765 1.19.255 2.55 1.87 2.55.765 0 1.105-.255.85-.595-.34-.255-.17-1.02.34-1.7.765-.85.595-1.105-.765-1.105-1.02 0-2.04.34-2.295.85z" />
  <path
    d="M106.375 30.795c-1.36.765-2.805 1.7-3.06 2.21-.68.935-9.265 1.275-9.86.34-.17-.34-1.02-.595-1.785-.595-1.275 0-1.275.17-.17.935.935.68.68.765-1.105.34-1.7-.34-2.295-.17-1.87.425.34.595-.17 1.19-1.275 1.445l-1.785.51 1.87 1.955c1.02 1.105 1.7 2.295 1.445 2.55-.68.68-4.08-1.19-4.08-2.21 0-.51-.68-.85-1.445-.85-1.19 0-1.275.17-.34.765.595.425 1.02 1.19.765 1.785-.255.85-.68.765-1.615-.17-1.105-1.105-1.53-1.19-2.89-.17-.85.68-2.465 1.19-3.57 1.19s-2.04.51-2.04 1.02c-.085.595-.255 2.21-.425 3.485-.255 2.21-.085 2.295 1.19 1.275.765-.595 1.7-1.53 2.04-1.955.34-.51.68 0 .68 1.02 0 1.87-1.02 2.295-4.845 2.21-.595-.085-1.105.255-1.105.68s-.595.765-1.275.765c-.85 0-1.445 1.19-1.785 3.4-.34 1.87-.935 3.655-1.275 3.91-.425.255-.765 1.19-.765 2.125 0 1.7 2.04 2.21 2.975.765.85-1.36 3.74.595 4.335 2.975.68 2.805 1.87 2.72 2.21-.255.17-1.87.595-2.21 2.295-2.04 1.105.17 3.74-.595 5.95-1.785 2.125-1.19 6.205-2.55 9.01-3.145 7.48-1.445 13.175-3.23 15.64-4.76 2.89-1.955 7.14-2.975 13.685-3.4 5.865-.34 9.265-1.36 12.92-3.995 1.19-.935 2.635-1.445 3.06-1.105.51.255 1.105.17 1.445-.34.255-.51-.595-1.53-2.04-2.38-1.445-.765-2.635-1.955-2.635-2.55 0-1.19-2.72-2.38-6.46-2.975-1.36-.17-3.145-.595-3.995-1.02-.765-.34-2.21-.425-3.145-.17-.85.255-3.06-.255-4.845-1.19-4.845-2.295-7.225-2.55-10.03-1.02zM62.6 66.665c-5.525 2.21-8.16 8.16-8.755 19.805-.765 14.705 2.465 30.77 7.14 34.595 3.23 2.805 3.91 6.885 1.445 9.095-3.57 3.23-4.08 5.61-2.38 9.52 1.105 2.465 2.125 3.57 3.315 3.57.935 0 2.21.255 2.975.51 2.465.935 2.465-2.04 0-5.185-1.955-2.635-2.125-3.315-1.36-5.1.595-1.19 1.445-2.04 2.04-1.955 1.19.255 1.19 0-.17-8.67-1.36-9.18-1.02-17.935.935-24.31 2.465-7.905 2.295-9.945-1.19-14.025-3.74-4.25-5.015-12.495-1.87-11.305 1.105.425.85-1.445-.68-6.545-.085-.34-.765-.34-1.445 0zm98.94 10.625c-.595 1.53 1.36 9.01 2.38 9.01.34 0 .68 2.04.765 4.42 0 2.465.34 5.27.68 6.205.68 1.615.68 1.615 1.53 0 1.275-2.295 2.125-9.265 1.445-11.815-.255-1.105-1.19-2.21-2.125-2.465-1.02-.255-1.87-1.445-2.125-3.06-.68-3.145-1.87-4.165-2.55-2.295zm5.355 9.18c-.255.595-.425.17-.425-1.02s.17-1.615.425-1.105c.17.595.17 1.615 0 2.125zm-38.93-4.505c-4.08.85-8.245 3.91-8.585 6.29-.17 1.02 0 4.675.255 8.075.34 4.675.935 6.63 2.295 8.075 3.485 3.655 14.365 5.185 20.145 2.805 2.635-1.105 2.975-1.615 2.975-4.42 0-2.975.085-3.06 2.38-2.635 3.4.68 4.76-.425 4.08-3.315-.34-1.36-.595-3.4-.595-4.59.085-2.635-2.55-7.14-5.27-8.84-2.295-1.53-13.09-2.465-17.68-1.445zm-35.615 7.99c-2.125.51-5.695 1.87-8.075 3.06-3.655 1.87-4.675 2.975-6.97 7.735-3.145 6.29-3.4 8.33-1.445 12.495 1.445 2.89 1.445 2.89 5.78 2.38 3.74-.51 4.59-.34 5.95 1.19 2.295 2.55 6.715 2.295 12.835-.765 2.805-1.36 5.61-2.55 6.205-2.55.595 0 1.7-1.275 2.38-2.89 1.19-2.295 1.275-4.335.765-11.05-.595-7.99-.68-8.16-2.805-8.67-1.275-.255-3.23-.68-4.42-.935-4.25-.85-6.46-.935-10.2 0zm78.795 20.655c-.68.68.255 2.89 1.19 2.89.425 0 .765-.765.765-1.7 0-1.615-.935-2.21-1.955-1.19zM52.91 121.66c-.595 1.615.935 11.135 2.125 13.09.51.85.68-1.53.51-6.29-.17-7.31-1.36-10.2-2.635-6.8zm62.73 5.865c-5.865 1.36-10.54 4.335-10.54 6.63 0 3.06 1.275 4.25 3.74 3.655 3.06-.765 2.975 1.36-.085 2.89-2.125 1.02-7.82 6.205-7.905 7.225 0 .255-.255 1.02-.51 1.7-.34.68-.34 2.04-.085 2.975s.085 1.87-.34 2.21c-.425.255-.17 1.36.595 2.55 1.02 1.445 1.105 2.04.34 2.04-.85 0-.85.255 0 1.275.935 1.105.85 1.19-.34.765-.765-.255-1.36-.85-1.36-1.19 0-1.02-5.78-2.805-7.225-2.21-.68.255-1.275.085-1.275-.425s-.51-.765-1.19-.51c-.68.255-1.445.085-1.7-.51-.255-.765-.425-.68-.425.085-.085.595-.425.85-.935.595-1.36-.85-1.02.595.595 2.295 1.19 1.36 1.19 1.53.085 1.53-1.615 0-2.55 2.89-1.275 4.165.68.68.51.935-.51.935-1.275 0-1.445.595-.935 3.995.255 2.295.85 4.76 1.275 5.525 2.295 4.335-1.02 12.665-4.335 10.88-2.21-1.19-2.55-1.105-1.955.595.425 1.105.17 1.275-.935.85-1.955-.765-1.36 1.02 2.975 9.775 2.55 4.93 3.315 7.48 3.315 10.71 0 2.38-.425 4.59-.85 4.845-.51.34-.68.85-.51 1.19.255.34-.51 1.275-1.7 2.125-1.105.935-2.04 2.295-2.04 3.145 0 .935-.34 1.615-.765 1.615s-.595-.85-.34-1.87c.51-1.955.51-1.87-1.36.17-1.7 1.87-1.785 1.87-1.02.255 1.445-2.89 1.105-3.23-1.19-1.105-1.19 1.105-2.125 1.615-2.125 1.105s.595-1.36 1.275-1.955c.68-.595 1.275-1.445 1.275-1.87 0-.51-1.36.34-3.06 1.87-1.7 1.445-3.315 2.38-3.57 2.125-.34-.255.935-1.87 2.805-3.57 2.89-2.465 2.975-2.72.765-1.36-5.865 3.485-6.715 4.42-5.78 6.035.51.765 2.72 2.72 4.93 4.165l4.08 2.805h43.35l-1.445-2.38c-.85-1.275-2.72-3.74-4.08-5.61l-2.635-3.315 9.18.425c5.015.255 8.67.17 8.075-.255-.595-.34-1.36-.51-1.7-.255-.34.17-.935-.085-1.275-.595-.34-.68-.255-.765.425-.425.51.34 1.19 0 1.445-.68.255-.765.85-1.36 1.36-1.36.425 0 .51.34.255.85s.085.595.765.34c.765-.255 1.36-.85 1.36-1.275s.255-.68.68-.68c1.615.255 3.825-.17 3.315-.595-.255-.34-.17-1.36.34-2.21.68-1.275 1.19-1.445 1.87-.765 1.105 1.105 2.635 1.275 1.955.255-.595-1.02.51-2.21 3.145-3.4 2.805-1.19 6.12-7.735 4.505-8.925-.51-.425.255-.51 1.87-.255 1.615.255 2.72.085 2.72-.425s-.34-.68-.765-.425c-.425.255-.935-.085-1.275-.765-.425-1.275-.085-1.53 2.465-1.53s3.06.255 2.55 1.105c-.255.425 0 .595.765.34 1.36-.51 2.38-2.465 2.72-5.27.17-1.02.85-2.465 1.53-3.23 1.275-1.275 1.36-4.93.34-14.79-.085-1.19.51-3.4 1.275-4.93.85-1.445 1.36-2.805 1.275-2.805-.17-.085-1.105-.255-2.21-.34-1.275-.17-1.785.17-1.53.85.17.595.17 1.36-.17 1.7-.34.34-.595.85-.68 1.105-.34 2.975-4.675 8.67-6.545 8.67-1.785 0-6.375-2.465-8.84-4.76-1.275-1.19-2.805-1.87-3.655-1.615-.765.255-3.06-.085-5.185-.68-3.995-1.105-7.565-1.02-7.565.34 0 .51-.34.595-.85.34-.425-.255-.85-.085-.85.34 0 .51-.595.935-1.275.935s-1.275.425-1.275.935.595.68 1.36.425c.765-.255 1.02-.17.68.425-.255.51-1.275.765-2.125.51-.935-.255-1.615-.085-1.615.425s-.51.68-1.19.425c-.68-.255-1.87 0-2.635.595-2.04 1.445-6.12.68-6.63-1.275-.255-.85-.085-1.615.425-1.615.425 0 .595-.34.34-.68-.425-.765 2.635-3.91 3.995-4.165 4.25-.85 6.885-1.615 10.795-3.4 2.55-1.19 6.205-2.635 8.075-3.23 3.315-1.02 3.4-1.105 3.4-5.1 0-3.4.425-4.335 2.55-6.035 3.06-2.465 4.335-2.55 7.565-.425 1.445.935 2.805 1.53 3.23 1.275 1.615-1.02-2.125-10.37-5.27-12.835-1.87-1.53-2.38-1.36-2.72.765-.255 1.87-.68 1.955-8.075 2.04-4.335.085-7.905-.255-7.905-.595 0-.425 1.19-1.615 2.635-2.635 1.53-1.19 2.38-2.465 2.21-3.315-.255-.85.34-2.55 1.19-3.825.85-1.275 1.36-2.635 1.105-2.975-.595-1.02-11.985-.68-17 .51zm-1.615 16.575c-5.525 2.635-6.375 2.89-6.375 1.87 0-1.105 7.055-4.42 9.35-4.335 1.615 0 .85.595-2.975 2.465zm19.125 4.25c0 1.19-2.975 2.55-5.44 2.55-3.06 0-2.72-1.275.595-2.38 3.57-1.105 4.845-1.19 4.845-.17zm-18.7 9.69c0 .255-.34.68-.85.935-.425.255-.85.085-.85-.34 0-.51.425-.935.85-.935.51 0 .85.17.85.34zm-2.805 1.955c-.34.255-.085 1.105.51 1.87.935 1.19.85 1.19-.425.17-1.36-1.02-1.36-2.635-.085-2.635.34 0 .255.255 0 .595zm-28.05 59.925c-.255.68-.51.425-.51-.51-.085-.935.17-1.445.425-1.105.255.255.34 1.02.085 1.615z" />
  <path
    d="M157.375 158.55c-.68 1.105.765 1.7 2.04.935.85-.51.765-.85-.255-1.19-.68-.255-1.53-.17-1.785.255zm29.07 25.585c-1.53.935-2.04 5.44-.595 6.29.51.255.85.34.85.17 0-.255.595-1.785 1.275-3.4 1.36-3.315.85-4.335-1.53-3.06zm-11.645 2.72c-3.06 1.02-5.865 2.21-6.205 2.72-.34.425-.425 2.465-.17 4.505.34 2.21.17 4.165-.425 4.845-1.615 1.955-2.125 10.37-.765 12.07.765.935.85 1.19.17.765-.765-.425-.935-.17-.595.68.85 2.21 2.04.595 2.04-2.72 0-5.355 1.02-6.035 5.44-3.655 2.125 1.02 4.08 1.785 4.505 1.53.34-.255 1.955-2.975 3.485-5.95 2.805-5.355 2.805-5.78 1.955-10.03-.935-4.25-2.21-6.8-3.4-6.63-.255 0-2.975.85-6.035 1.87zm4.08 26.435c-1.19 3.06-1.955 5.61-1.53 5.61.85 0 4.505-9.01 4.08-10.285-.17-.51-1.36 1.615-2.55 4.675zm10.03-2.295c-.51 1.19-.425 1.275.425.51.595-.595.85-1.275.595-1.53-.255-.255-.765.17-1.02 1.02zm-120.36 3.23c-1.19.68-1.7 1.19-1.19 1.275.425 0 1.615-.595 2.55-1.275 2.04-1.53 1.36-1.615-1.36 0zm116.62 1.445c-1.19 1.445-1.615 3.995-.68 3.91.425 0 1.105.51 1.53 1.19.51.765.595.51.255-.85-.425-1.445-.17-1.87 1.02-1.87 1.445-.085 1.445-.085 0-.935-.765-.51-1.275-1.19-1.02-1.7.765-1.105-.085-.935-1.105.255z" />
</svg>
